<?xml version="1.0" encoding="UTF-8" standalone="no"?>
<svg id="svg4592" xmlns:rdf="http://www.w3.org/1999/02/22-rdf-syntax-ns#" xmlns="http://www.w3.org/2000/svg" height="282.22mm" width="451.56mm" version="1.1" xmlns:cc="http://creativecommons.org/ns#" xmlns:dc="http://purl.org/dc/elements/1.1/" viewBox="0 0 1599.9999 1000">
<defs id="defs4594">
<pattern id="pattern5377" width="200" patternUnits="userSpaceOnUse" patternTransform="translate(125 142.36)" height="199.99998">
<g id="g5358" transform="matrix(4 0 0 4 -500 -1169.4)">
<path id="path4416" d="m125 292.36v50h25c-0.002-10.66-15.004-14.34-15-25 0.004-10.665 15.002-14.335 15-25h-25z" fill="#500"/>
<path id="path4418" d="m125 292.36v50h20c-0.002-10.66-12.504-14.34-12.5-25 0.004-10.665 12.502-14.335 12.5-25h-20z" fill="#800000"/>
<path id="path4420" d="m125 292.36v50h15c-0.002-10.66-10.004-14.34-10-25 0.004-10.665 10.002-14.335 10-25h-15z" fill="#a00"/>
<path id="path4422" d="m125 292.36v50h10c-0.002-10.66-7.5042-14.34-7.5-25 0.004-10.665 7.5023-14.335 7.5-25h-10z" fill="#d40000"/>
<path id="path4424" d="m125 292.36v25c0.004-10.665 5.0023-14.335 5-25h-5zm0 25v25h5c-0.002-10.66-5.0042-14.34-5-25z" fill="#f00"/>
<path id="path5228" d="m140 292.36c-0.003 10.664-15.002 14.336-15 25 0.002 10.661 15.003 14.339 15 25h20c0.004-10.665 15.002-14.335 15-25-0.002-10.66-15.004-14.34-15-25h-20z" fill="#500"/>
<path id="path5230" d="m142.5 292.36c-0.003 10.664-12.502 14.336-12.5 25 0.002 10.661 12.503 14.339 12.5 25h15c0.004-10.665 12.502-14.335 12.5-25-0.002-10.66-12.504-14.34-12.5-25h-15z" fill="#800000"/>
<path id="path5232" d="m145 292.36c-0.003 10.664-10.002 14.336-10 25 0.002 10.661 10.003 14.339 10 25h10c0.004-10.665 10.002-14.335 10-25-0.002-10.66-10.004-14.34-10-25h-10z" fill="#a00"/>
<path id="path5234" d="m147.5 292.36c-0.003 10.664-7.5017 14.336-7.5 25 0.002 10.661 7.5029 14.339 7.5 25h5c0.004-10.665 7.5023-14.335 7.5-25-0.002-10.66-7.5042-14.34-7.5-25h-5z" fill="#d40000"/>
<path id="path5236" d="m150 292.36c-0.003 10.664-5.0017 14.336-5 25 0.002 10.661 5.0029 14.339 5 25 0.004-10.665 5.0023-14.335 5-25-0.002-10.66-5.0042-14.34-5-25z" fill="#f00"/>
<path id="path5240" d="m150 292.36c0.002 10.661 15.003 14.339 15 25-0.003 10.664-15.002 14.336-15 25h25v-50h-25z" fill="#500"/>
<path id="path5242" d="m155 292.36c0.002 10.661 12.503 14.339 12.5 25-0.003 10.664-12.502 14.336-12.5 25h20v-50h-20z" fill="#800000"/>
<path id="path5244" d="m160 292.36c0.002 10.661 10.003 14.339 10 25-0.003 10.664-10.002 14.336-10 25h15v-50h-15z" fill="#a00"/>
<path id="path5246" d="m165 292.36c0.002 10.661 7.5029 14.339 7.5 25-0.003 10.664-7.5017 14.336-7.5 25h10v-50h-10z" fill="#d40000"/>
<path id="path5248" d="m170 292.36c0.002 10.661 5.0029 14.339 5 25v-25h-5zm5 25c-0.003 10.664-5.0017 14.336-5 25h5v-25z" fill="#f00"/>
</g>
</pattern>
</defs>
<g id="layer1" transform="translate(-125 657.64)">
<rect id="rect5375" height="1e3" width="1600" y="-657.64" x="125" fill="url(#pattern5377)"/>
</g>
</svg>
